<?xml version="1.0" encoding="utf-8"?>
<!-- Generator: Adobe Illustrator 25.0.0, SVG Export Plug-In . SVG Version: 6.00 Build 0)  -->
<svg version="1.1"
	 id="Layer_1" xmlns:cc="http://creativecommons.org/ns#" xmlns:dc="http://purl.org/dc/elements/1.1/" xmlns:inkscape="http://www.inkscape.org/namespaces/inkscape" xmlns:rdf="http://www.w3.org/1999/02/22-rdf-syntax-ns#" xmlns:sodipodi="http://sodipodi.sourceforge.net/DTD/sodipodi-0.dtd" xmlns:svg="http://www.w3.org/2000/svg"
	 xmlns="http://www.w3.org/2000/svg" xmlns:xlink="http://www.w3.org/1999/xlink" x="0px" y="0px" viewBox="0 0 66 66"
	 style="enable-background:new 0 0 66 66;" xml:space="preserve">
<style type="text/css">
	.st0{fill:#3F78E0;}
	.st1{fill:#FFFFFF;}
</style>
<circle class="st0" cx="33" cy="33" r="31.3"/>
<g>
	<path class="st1" d="M52.5,32.2h-5c-0.3,0-0.6,0.3-0.6,0.6v1.6c-1.6-0.6-4.1-1.2-5.8-1.2c-1.8,0-3.2,0.3-4.4,0.7L36.5,34
		c-1.1,0.3-2,0.6-3.2,0.6l-5-0.2c-1.1,0-2.1,0.7-2.3,1.7l-9-4.3c-0.4-0.2-0.9-0.3-1.4-0.3c-0.9,0-1.7,0.4-2.2,1.1
		c-0.3,0.5-0.5,1.1-0.4,1.6c0.1,0.6,0.4,1.1,0.9,1.5l0,0c0.6,0.4,1.3,0.9,2.1,1.5c1.9,1.3,4.3,3,6.7,4.5c2,1.3,3.6,2.2,4.9,2.9
		s2.6,1.3,3.7,1.3c2.1,0,4-0.3,5.8-0.6c2.9-0.4,5.9-0.9,9.8-0.1v1.5c0,0.3,0.3,0.6,0.6,0.6h5c0.3,0,0.6-0.3,0.6-0.6V32.8
		C53.1,32.5,52.8,32.2,52.5,32.2z M51.9,33.4V46h-1.5V33.4H51.9z M47.5,42.2L47.5,42.2c-0.2,0-0.3,0.1-0.4,0.2
		c-0.1,0.1-0.2,0.3-0.2,0.4V44c-4.1-0.7-7.1-0.3-10.1,0.2c-1.8,0.3-3.6,0.5-5.5,0.5c-0.5,0-1.8-0.5-3.1-1.2
		c-1.3-0.7-2.9-1.6-4.8-2.9c-2.4-1.5-4.7-3.2-6.6-4.5c-0.8-0.6-1.6-1.1-2.2-1.5c-0.3-0.2-0.4-0.4-0.4-0.7s0.1-0.6,0.2-0.8
		c0.2-0.3,0.5-0.6,1.1-0.6c0.3,0,0.6,0.1,1,0.2l9.7,4.7l0,0c0.4,0.8,1.2,1.3,2.1,1.4l9.6,0.4c0.2,0,0.3-0.1,0.4-0.2s0.2-0.3,0.2-0.4
		c0-0.2-0.1-0.3-0.2-0.4S38,38,37.8,38l-9.5-0.4c-0.7,0-1.2-0.5-1.2-1c0-0.3,0.1-0.5,0.3-0.7c0.2-0.2,0.5-0.3,0.8-0.3l0,0l5,0.2l0,0
		c1.4,0,2.5-0.3,3.5-0.6L37,35c1.2-0.4,2.4-0.6,4.1-0.6c1.5,0,4.2,0.7,5.8,1.3v1.1c0,0.2,0.1,0.3,0.2,0.4c0.1,0.1,0.2,0.2,0.4,0.2
		c0.3,0,0.6-0.3,0.6-0.6v-3.3h1.1V46h-1.1v-3.3C48.1,42.4,47.8,42.2,47.5,42.2z"/>
	<path class="st1" d="M26.9,27.9c-0.1,0.1-0.2,0.3-0.2,0.4c0,0.3,0.3,0.6,0.6,0.6l0,0h2.6v2.6c0,0.2,0.1,0.3,0.2,0.4
		c0.1,0.1,0.3,0.2,0.4,0.2l0,0c0.2,0,0.3-0.1,0.4-0.2s0.2-0.3,0.2-0.4v-2.6h2.6c0.3,0,0.6-0.3,0.6-0.6c0-0.2-0.1-0.3-0.2-0.4
		c-0.1-0.1-0.3-0.2-0.4-0.2l0,0h-2.6v-2.6c0-0.3-0.3-0.6-0.6-0.6l0,0c-0.3,0-0.6,0.3-0.6,0.6v2.6h-2.6
		C27.2,27.7,27.1,27.8,26.9,27.9z"/>
	<path class="st1" d="M24.9,21.8h1.2V23c0,0.3,0.3,0.6,0.6,0.6l0,0c0.3,0,0.6-0.3,0.6-0.6v-1.2h1.2c0.3,0,0.6-0.3,0.6-0.6
		c0-0.2-0.1-0.3-0.2-0.4s-0.3-0.2-0.4-0.2h-1.2v-1.2c0-0.3-0.3-0.6-0.6-0.6l0,0c-0.3,0-0.6,0.3-0.6,0.6v1.2h-1.2
		c-0.2,0-0.3,0.1-0.4,0.2s-0.2,0.3-0.2,0.4c0,0.2,0.1,0.3,0.2,0.4C24.6,21.7,24.8,21.8,24.9,21.8z"/>
	<path class="st1" d="M32.5,21.8h1.2V23c0,0.3,0.3,0.6,0.6,0.6l0,0c0.2,0,0.3-0.1,0.4-0.2c0.1-0.1,0.2-0.3,0.2-0.4v-1.2h1.2
		c0.2,0,0.3-0.1,0.4-0.2c0.1-0.1,0.2-0.3,0.2-0.4s-0.1-0.3-0.2-0.4c-0.1-0.1-0.3-0.2-0.4-0.2h-1.2v-1.2c0-0.3-0.3-0.6-0.6-0.6l0,0
		c-0.2,0-0.3,0.1-0.4,0.2c-0.1,0.1-0.2,0.3-0.2,0.4v1.2h-1.2c-0.2,0-0.3,0.1-0.4,0.2c-0.1,0.1-0.2,0.3-0.2,0.4
		c0,0.2,0.1,0.3,0.2,0.4C32.2,21.7,32.4,21.8,32.5,21.8z"/>
</g>
</svg>
