<?xml version="1.0" encoding="utf-8"?>
<!-- Generator: Adobe Illustrator 25.0.0, SVG Export Plug-In . SVG Version: 6.00 Build 0)  -->
<svg version="1.1" id="Layer_1" xmlns="http://www.w3.org/2000/svg" xmlns:xlink="http://www.w3.org/1999/xlink" x="0px" y="0px"
	 viewBox="0 0 66 66" style="enable-background:new 0 0 66 66;" xml:space="preserve">
<style type="text/css">
	.st0{fill:#3F78E0;}
	.st1{fill:#FFFFFF;}
</style>
<g>
	<circle class="st0" cx="33" cy="33" r="31.3"/>
	<g>
		<path class="st1" d="M44.7,42.4l-3.9-9l10.1-4.8l-0.5-1.1l-14.4,6.9c-0.3,0.1-0.4,0.5-0.3,0.8l0.4,0.8l-1.1,0.7
			c-0.1,0.1-0.2,0.1-0.3,0.1h-2.7c-0.7,0-1.3,0.4-1.6,0.9l0,0.1l-2.8-1.4l0.5-1.3c0.1-0.3,0-0.7-0.3-0.8l-14.4-6.9l-0.5,1.1
			l10.1,4.8l-3.9,9l-5.6-2.5l-0.5,1.2l10,4.4c0.3,0.1,0.7,0,0.8-0.3l0,0l0.2-0.5l0.9,0.9c0.1,0.1,0.2,0.3,0.2,0.4v0.8
			c0,0.6,0.3,1.1,0.7,1.5l3.3,2.6c1.7,1.3,4.1,1.1,5.5-0.4l5.4-5.8l0.2,0.4c0.1,0.3,0.5,0.5,0.8,0.3l0,0l10-4.4l-0.5-1.2L44.7,42.4z
			 M22.7,44L20,42.9l3.9-9l2.7,1.3L22.7,44z M33.5,49.6c-1,1.1-2.7,1.2-3.8,0.3l-3.3-2.6c-0.1-0.1-0.2-0.3-0.2-0.5V46
			c0-0.5-0.2-1-0.5-1.3l-1.3-1.3l2.6-5.9l2.7,1.3l-1.5,2.6c-0.2,0.3-0.1,0.6,0.2,0.8l1.1,0.7c0.7,0.5,1.7,0.4,2.3-0.1l1.9-1.5
			l3.9,3.9L33.5,49.6z M38.4,44.3L34.1,40c-0.2-0.2-0.6-0.2-0.8,0l-2.4,1.9c-0.3,0.2-0.6,0.2-0.9,0l-0.6-0.4l1.9-3.2
			c0.1-0.2,0.3-0.3,0.5-0.3h2.7c0.4,0,0.7-0.1,1-0.3l0.9-0.6l2.8,6.4L38.4,44.3z M40.9,44L37,35.1l2.7-1.3l3.9,9L40.9,44z"/>
		<path class="st1" d="M41,19.5c2.1,2.3,3.3,5.3,3.3,8.5h1.3c0-7.1-5.4-13-12.5-13.7L33,15.5C36.1,15.8,38.9,17.2,41,19.5z"/>
		<path class="st1" d="M22.5,19.5c2.1-2.3,5-3.7,8.1-4l-0.1-1.2C23.4,14.9,18,20.9,18,28h1.3C19.2,24.8,20.4,21.8,22.5,19.5z"/>
		<path class="st1" d="M29.3,18.6v1.9h-3.8c-1,0-1.9,0.8-1.9,1.9v7.5c0,1,0.8,1.9,1.9,1.9H38c1,0,1.9-0.8,1.9-1.9v-7.5
			c0-1-0.8-1.9-1.9-1.9h-3.8v-1.9c0-1-0.8-1.9-1.9-1.9h-1.3C30.1,16.7,29.3,17.5,29.3,18.6z M38,21.7c0.3,0,0.6,0.3,0.6,0.6v0.8
			l-1.4,0.6c-0.4,0.2-0.9,0.3-1.3,0.5l0.4,1.2c0.5-0.1,1-0.3,1.4-0.5l0.9-0.4v5.3c0,0.3-0.3,0.6-0.6,0.6H25.5
			c-0.3,0-0.6-0.3-0.6-0.6v-5.3l0.9,0.4c0.5,0.2,0.9,0.4,1.4,0.5l0.4-1.2c-0.4-0.1-0.9-0.3-1.3-0.5l-1.4-0.6v-0.8
			c0-0.3,0.3-0.6,0.6-0.6H38z M30.5,18.6c0-0.3,0.3-0.6,0.6-0.6h1.3c0.3,0,0.6,0.3,0.6,0.6v1.9h-2.5V18.6z"/>
		<path class="st1" d="M29.6,27.3l-0.8,0.8l0.9,0.9l0.8-0.8c0.2,0.1,0.4,0.2,0.6,0.3v0.7h1.3v-0.7c0.2-0.1,0.4-0.1,0.6-0.3l0.8,0.8
			l0.9-0.9l-0.8-0.8c0.1-0.2,0.2-0.4,0.3-0.6h0.7v-1.3h-0.7c-0.1-0.2-0.1-0.4-0.3-0.6l0.8-0.8l-0.9-0.9L33,23.9
			c-0.2-0.1-0.4-0.2-0.6-0.3v-0.7h-1.3v0.7c-0.2,0.1-0.4,0.1-0.6,0.3l-0.8-0.8L28.8,24l0.8,0.8c-0.1,0.2-0.2,0.4-0.3,0.6h-0.7v1.3
			h0.7C29.4,26.9,29.5,27.1,29.6,27.3z M31.8,24.8c0.7,0,1.3,0.6,1.3,1.3c0,0.7-0.6,1.3-1.3,1.3c-0.7,0-1.3-0.6-1.3-1.3
			C30.5,25.4,31.1,24.8,31.8,24.8z"/>
	</g>
</g>
</svg>
