<?xml version="1.0" encoding="utf-8"?>
<!-- Generator: Adobe Illustrator 25.0.0, SVG Export Plug-In . SVG Version: 6.00 Build 0)  -->
<svg version="1.1" id="Layer_1" xmlns="http://www.w3.org/2000/svg" xmlns:xlink="http://www.w3.org/1999/xlink" x="0px" y="0px"
	 viewBox="0 0 66 66" style="enable-background:new 0 0 66 66;" xml:space="preserve">
<style type="text/css">
	.st0{fill:#3F78E0;}
	.st1{fill:#FFFFFF;}
</style>
<g>
	<circle class="st0" cx="32.9" cy="33" r="31.3"/>
	<path class="st1" d="M19.2,46.7c-0.9,0-1.7-0.8-1.7-1.7v-1.2c0-0.4,0.2-0.8,0.4-1.1l0.1-0.1l-0.1-0.1c-0.3-0.3-0.4-0.7-0.4-1.1
		v-1.2c0-0.4,0.2-0.8,0.4-1.1l0.1-0.1l-0.1-0.1c-0.3-0.3-0.4-0.7-0.4-1.1v-1.2c0-0.9,0.8-1.7,1.7-1.7h8.6c0.9,0,1.7,0.8,1.7,1.7v1.2
		c0,0.4-0.2,0.8-0.4,1.1l-0.1,0.1l0.1,0.1c0.3,0.3,0.4,0.7,0.4,1.1v1.2c0,0.4-0.2,0.8-0.4,1.1l-0.1,0.1l0.1,0.1
		c0.3,0.3,0.4,0.7,0.4,1.1V45c0,0.9-0.8,1.7-1.7,1.7l0,0H19.2z M19.2,43c-0.4,0-0.7,0.3-0.7,0.7V45c0,0.4,0.3,0.7,0.7,0.7h8.6
		c0.4,0,0.7-0.3,0.7-0.7v-1.2c0-0.4-0.3-0.7-0.7-0.7H19.2z M19.2,39.3c-0.4,0-0.7,0.3-0.7,0.7v1.2c0,0.4,0.3,0.7,0.7,0.7h8.6
		c0.4,0,0.7-0.3,0.7-0.7v-1.2c0-0.4-0.3-0.7-0.7-0.7H19.2z M19.2,35.6c-0.4,0-0.7,0.3-0.7,0.7v1.2c0,0.4,0.3,0.7,0.7,0.7h8.6
		c0.4,0,0.7-0.3,0.7-0.7v-1.2c0-0.4-0.3-0.7-0.7-0.7H19.2z"/>
	<rect x="19.3" y="36.5" class="st1" width="1" height="1"/>
	<rect x="23" y="36.5" class="st1" width="4.7" height="1"/>
	<rect x="19.3" y="40.2" class="st1" width="1" height="1"/>
	<rect x="23" y="40.2" class="st1" width="4.7" height="1"/>
	<rect x="19.3" y="43.9" class="st1" width="1" height="1"/>
	<rect x="23" y="43.9" class="st1" width="4.7" height="1"/>
	<path class="st1" d="M32,29.5c-0.6,0-1.1-0.5-1.1-1.1V14.9c0-0.6,0.5-1.1,1.1-1.1h17.2c0.6,0,1.1,0.5,1.1,1.1v13.5
		c0,0.6-0.5,1.1-1.1,1.1l0,0H32z M31.9,28.5h17.4l0-13.7H31.9V28.5z"/>
	<path class="st1" d="M37.6,24c-0.4,0-0.8-0.1-1.1-0.2c-0.2-0.1-0.4-0.3-0.4-0.5v-0.4l-0.1,0c-0.1-0.1-0.3-0.1-0.4-0.2l-0.1,0
		l-0.4,0.2c-0.1,0-0.2,0.1-0.2,0.1c-0.1,0-0.2,0-0.3-0.1c-0.6-0.5-0.9-1.2-1.1-1.9c-0.1-0.2,0-0.4,0.2-0.6l0.4-0.2c0,0,0-0.2,0-0.3
		c0-0.1,0-0.3,0-0.3l-0.4-0.2c-0.2-0.1-0.3-0.3-0.2-0.6c0.2-0.7,0.6-1.4,1.1-1.9c0.1-0.1,0.2-0.1,0.3-0.1c0.1,0,0.2,0,0.2,0.1
		l0.4,0.2l0.1,0c0.1-0.1,0.2-0.1,0.4-0.2l0.1,0v-0.4c0-0.2,0.1-0.4,0.4-0.5c0.4-0.1,0.8-0.2,1.1-0.2c0.4,0,0.8,0.1,1.1,0.2
		c0.2,0.1,0.4,0.3,0.4,0.5v0.4l0.1,0c0.1,0.1,0.3,0.1,0.4,0.2l0.1,0l0.4-0.2c0.1,0,0.2-0.1,0.2-0.1c0.1,0,0.2,0,0.3,0.1
		c0.6,0.5,0.9,1.2,1.1,1.9c0.1,0.2,0,0.4-0.2,0.6l-0.4,0.2c0,0,0,0.2,0,0.3s0,0.3,0,0.3l0.4,0.2c0.2,0.1,0.3,0.3,0.2,0.6
		c-0.2,0.7-0.6,1.4-1.1,1.9c-0.1,0.1-0.2,0.1-0.3,0.1l0,0c-0.1,0-0.2,0-0.2-0.1l-0.4-0.2l-0.1,0c-0.1,0.1-0.2,0.1-0.4,0.2l-0.1,0
		v0.4c0,0.2-0.1,0.4-0.4,0.5C38.3,23.9,38,24,37.6,24L37.6,24z M35.5,21.7c0.2,0,0.4,0.1,0.5,0.2c0.1,0.1,0.2,0.2,0.4,0.2
		c0.3,0.1,0.5,0.5,0.6,0.8l0,0.1l0.1,0c0.1,0,0.3,0,0.4,0c0.2,0,0.3,0,0.4,0l0.1,0l0-0.1c0-0.4,0.2-0.7,0.6-0.8
		c0.1-0.1,0.3-0.1,0.4-0.2c0.2-0.1,0.4-0.2,0.5-0.2c0.2,0,0.3,0,0.5,0.1l0.1,0l0.1-0.1c0.2-0.2,0.3-0.4,0.4-0.7l0-0.1l-0.3-0.2
		c-0.2-0.1-0.3-0.3-0.2-0.5c0.1-0.3,0.1-0.6,0-0.9c0-0.2,0.1-0.4,0.2-0.5l0.3-0.2l0-0.1c-0.1-0.2-0.2-0.5-0.4-0.7l-0.1-0.1l-0.1,0
		C39.9,18,39.7,18,39.6,18c-0.2,0-0.4-0.1-0.5-0.2c-0.1-0.1-0.2-0.2-0.4-0.2c-0.3-0.2-0.5-0.5-0.6-0.8l0-0.1l-0.1,0
		c-0.1,0-0.3,0-0.4,0c-0.2,0-0.3,0-0.4,0l-0.1,0l0,0.1c0,0.4-0.2,0.7-0.6,0.8c-0.1,0.1-0.3,0.1-0.4,0.2c-0.2,0.1-0.4,0.2-0.5,0.2
		c-0.2,0-0.3,0-0.5-0.1l-0.1,0l-0.1,0.1c-0.2,0.2-0.3,0.4-0.4,0.7l0,0.1l0.3,0.2c0.2,0.1,0.3,0.3,0.2,0.5C35,19.7,35,20,35,20.3
		c0,0.2-0.1,0.4-0.2,0.5L34.5,21l0,0.1c0.1,0.2,0.2,0.5,0.4,0.7l0.1,0.1l0.1,0C35.2,21.7,35.4,21.7,35.5,21.7z"/>
	<path class="st1" d="M37.5,21.6c-0.9,0-1.7-0.8-1.7-1.7s0.8-1.7,1.7-1.7c0.9,0,1.7,0.8,1.7,1.7C39.3,20.8,38.5,21.6,37.5,21.6z
		 M37.5,19.1c-0.4,0-0.7,0.3-0.7,0.7s0.3,0.7,0.7,0.7c0.4,0,0.7-0.3,0.7-0.7C38.3,19.4,38,19.1,37.5,19.1z"/>
	<rect x="46.9" y="19.3" class="st1" width="1" height="8.3"/>
	<rect x="44.4" y="21.8" class="st1" width="1" height="5.9"/>
	<rect x="42" y="23.6" class="st1" width="1" height="4"/>
	<rect x="39.5" y="25.5" class="st1" width="1" height="2.2"/>
	<path class="st1" d="M23.4,51.6c-5.3,0-9.9-3.8-10.8-9.1c-1-5.9,3-11.6,8.9-12.6l0.1,0v-1.5c0-0.1,0-0.2,0.1-0.3
		c0.1-0.1,0.2-0.2,0.4-0.2c0.1,0,0.2,0,0.3,0.1l3.1,1.8c0.1,0,0.1,0.1,0.2,0.2c0.1,0.2,0.1,0.5-0.2,0.7l-3.1,1.8
		c-0.1,0-0.2,0.1-0.3,0.1c-0.3,0-0.5-0.2-0.5-0.5v-1.2l-0.1,0c-3.4,0.6-6.2,3.1-7.4,6.3c-0.9,2.5-0.8,5.2,0.3,7.6
		c1.1,2.4,3.1,4.3,5.6,5.2c1.1,0.4,2.3,0.6,3.5,0.6c4.1,0,7.9-2.6,9.3-6.5c0.9-2.5,0.8-5.2-0.3-7.6c-1.1-2.4-3-4.2-5.4-5.2l0.3-0.9
		c4.2,1.6,6.9,5.7,6.9,10.2c0,2.9-1.1,5.7-3.2,7.7C29.1,50.4,26.4,51.6,23.4,51.6L23.4,51.6z M22.7,31.2l1.6-1l-1.6-1V31.2z"/>
	<rect x="40.7" y="31" class="st1" width="1" height="1"/>
	<rect x="40.7" y="33.4" class="st1" width="1" height="1"/>
	<rect x="40.7" y="35.9" class="st1" width="1" height="1"/>
	<rect x="40.7" y="38.3" class="st1" width="1" height="1"/>
	<rect x="40.7" y="40.8" class="st1" width="1" height="1"/>
	<rect x="38.3" y="40.8" class="st1" width="1" height="1"/>
	<rect x="35.8" y="40.8" class="st1" width="1" height="1"/>
</g>
</svg>
