<?xml version="1.0" encoding="utf-8"?>
<!-- Generator: Adobe Illustrator 25.0.0, SVG Export Plug-In . SVG Version: 6.00 Build 0)  -->
<svg version="1.1" id="Layer_1" xmlns="http://www.w3.org/2000/svg" xmlns:xlink="http://www.w3.org/1999/xlink" x="0px" y="0px"
	 viewBox="0 0 66 66" style="enable-background:new 0 0 66 66;" xml:space="preserve">
<style type="text/css">
	.st0{fill:#3F78E0;}
	.st1{fill:#FFFFFF;}
</style>
<circle class="st0" cx="33.2" cy="32.7" r="31.3"/>
<g>
	<path class="st1" d="M33.2,50.6c-0.1,0-0.2,0-0.2-0.1C23.2,46.3,17.6,36,17.6,22.5c0-0.2,0.1-0.4,0.3-0.5l15-7.2
		c0.2-0.1,0.4-0.1,0.5,0l15,7.2c0.2,0.1,0.3,0.3,0.3,0.5c0,13.5-5.6,23.8-15.3,28.1C33.3,50.6,33.3,50.6,33.2,50.6z M18.8,22.9
		c0.1,12.7,5.3,22.4,14.4,26.5c9.1-4.2,14.3-13.8,14.4-26.5l-14.4-6.9L18.8,22.9z"/>
	<path class="st1" d="M33.2,47.6c-0.1,0-0.2,0-0.3-0.1C22.2,42.2,20.2,30.7,20,24.3c0-0.2,0.1-0.5,0.3-0.6l12.6-6
		c0.2-0.1,0.4-0.1,0.5,0l12.6,6c0.2,0.1,0.3,0.3,0.3,0.6c-0.2,6.4-2.2,17.9-12.9,23.3C33.4,47.6,33.3,47.6,33.2,47.6z M21.2,24.6
		c0.3,6.1,2.3,16.7,12,21.7c9.7-5.1,11.7-15.6,12-21.7l-12-5.7L21.2,24.6z"/>
	<path class="st1" d="M33.2,39.9c-4.3,0-7.8-3.5-7.8-7.8s3.5-7.8,7.8-7.8s7.8,3.5,7.8,7.8S37.4,39.9,33.2,39.9z M33.2,25.5
		c-3.6,0-6.6,3-6.6,6.6s3,6.6,6.6,6.6s6.6-3,6.6-6.6S36.8,25.5,33.2,25.5z"/>
	<path class="st1" d="M36.2,36.3h-6c-0.3,0-0.6-0.3-0.6-0.6v-4.8c0-0.3,0.3-0.6,0.6-0.6h6c0.3,0,0.6,0.3,0.6,0.6v4.8
		C36.8,36,36.5,36.3,36.2,36.3z M30.8,35.1h4.8v-3.6h-4.8V35.1z"/>
	<path class="st1" d="M35,31.5h-3.6c-0.3,0-0.6-0.3-0.6-0.6v-1.8c0-1.3,1.1-2.4,2.4-2.4c1.3,0,2.4,1.1,2.4,2.4v1.8
		C35.6,31.2,35.3,31.5,35,31.5z M32,30.3h2.4v-1.2c0-0.7-0.5-1.2-1.2-1.2S32,28.4,32,29.1V30.3z"/>
	<path class="st1" d="M33.2,34.5c-0.3,0-0.6-0.3-0.6-0.6v-1.2c0-0.3,0.3-0.6,0.6-0.6s0.6,0.3,0.6,0.6v1.2
		C33.8,34.2,33.5,34.5,33.2,34.5z"/>
</g>
</svg>
