<?xml version="1.0" encoding="utf-8"?>
<!-- Generator: Adobe Illustrator 25.0.0, SVG Export Plug-In . SVG Version: 6.00 Build 0)  -->
<svg version="1.1" id="Layer_1" xmlns="http://www.w3.org/2000/svg" xmlns:xlink="http://www.w3.org/1999/xlink" x="0px" y="0px"
	 viewBox="0 0 66 66" style="enable-background:new 0 0 66 66;" xml:space="preserve">
<style type="text/css">
	.st0{fill:#3F78E0;}
	.st1{fill:#FFFFFF;}
</style>
<circle class="st0" cx="33" cy="33" r="31.3"/>
<g>
	<path class="st1" d="M29.7,17.2c0,1.8,1.5,3.3,3.3,3.3c1.8,0,3.3-1.5,3.3-3.3s-1.5-3.3-3.3-3.3C31.2,13.9,29.7,15.3,29.7,17.2z
		 M34.8,17.2c0,1-0.8,1.8-1.8,1.8c-1,0-1.8-0.8-1.8-1.8s0.8-1.8,1.8-1.8C34,15.4,34.8,16.2,34.8,17.2z"/>
	<path class="st1" d="M19.8,36.6c1.8,0,3.3-1.5,3.3-3.3c0-1.8-1.5-3.3-3.3-3.3s-3.3,1.5-3.3,3.3C16.5,35.2,18,36.6,19.8,36.6z
		 M19.8,31.5c1,0,1.8,0.8,1.8,1.8c0,1-0.8,1.8-1.8,1.8S18,34.4,18,33.3C18,32.3,18.8,31.5,19.8,31.5z"/>
	<path class="st1" d="M43,33.3c0,1.8,1.5,3.3,3.3,3.3s3.3-1.5,3.3-3.3c0-1.8-1.5-3.3-3.3-3.3S43,31.5,43,33.3z M48,33.3
		c0,1-0.8,1.8-1.8,1.8s-1.8-0.8-1.8-1.8c0-1,0.8-1.8,1.8-1.8S48,32.4,48,33.3z"/>
	<path class="st1" d="M47.8,37.9h-3c-1.6,0-3,1.3-3,2.9l-8-4V30h3c0.4,0,0.8-0.3,0.8-0.8v-4.5c0-1.7-1.4-3-3-3h-3c-1.7,0-3,1.4-3,3
		v4.5c0,0.4,0.3,0.8,0.8,0.8h3v6.8l-8,4c-0.1-1.6-1.4-2.9-3-2.9h-3c-1.7,0-3,1.4-3,3v4.5c0,0.4,0.3,0.8,0.8,0.8h7.5
		c0.4,0,0.8-0.3,0.8-0.8v-2.9l8.7-4.4l8.7,4.4v2.9c0,0.4,0.3,0.8,0.8,0.8H50c0.4,0,0.8-0.3,0.8-0.8v-4.5
		C50.8,39.3,49.4,37.9,47.8,37.9z M22.8,44.6h-6v-3.7c0-0.8,0.7-1.5,1.5-1.5h3c0.8,0,1.5,0.7,1.5,1.5V44.6z M30,28.5v-3.7
		c0-0.8,0.7-1.5,1.5-1.5h3c0.8,0,1.5,0.7,1.5,1.5v3.7H30z M49.3,44.6h-6v-3.7c0-0.8,0.7-1.5,1.5-1.5h3c0.8,0,1.5,0.7,1.5,1.5V44.6z"
		/>
</g>
</svg>
