<?xml version="1.0" encoding="utf-8"?>
<!-- Generator: Adobe Illustrator 25.0.0, SVG Export Plug-In . SVG Version: 6.00 Build 0)  -->
<svg version="1.1" id="Layer_1" xmlns="http://www.w3.org/2000/svg" xmlns:xlink="http://www.w3.org/1999/xlink" x="0px" y="0px"
	 viewBox="0 0 66 66" style="enable-background:new 0 0 66 66;" xml:space="preserve">
<style type="text/css">
	.st0{fill:#3F78E0;}
	.st1{fill:#FFFFFF;}
</style>
<circle class="st0" cx="33" cy="33" r="31.3"/>
<g>
	<path class="st1" d="M26.5,43.9h-0.6v-1c0-1.3-0.6-2.6-1.6-3.4v-3.7c0-0.9-0.8-1.7-1.7-1.7l1.9-4.2c0.3-0.8-0.1-1.7-0.9-2.1
		c-0.8-0.4-1.7-0.1-2.2,0.7l-4.6,8.2c-0.6,1-0.6,2.2-0.1,3.2l2.2,4.1h-0.4c-0.3,0-0.5,0.2-0.5,0.5v3.7c0,0.3,0.2,0.5,0.5,0.5h8
		c0.3,0,0.5-0.2,0.5-0.5v-3.7C27,44.1,26.8,43.9,26.5,43.9z M17.7,39.2c-0.4-0.6-0.4-1.4,0.1-2.1l4.5-8.2c0.2-0.3,0.6-0.4,0.9-0.3
		c0.3,0.2,0.5,0.5,0.4,0.7l-2.5,5.4l0,0c-0.2,0.3-0.2,0.5-0.2,0.8v4.1c0,0.3,0.2,0.5,0.5,0.5c0.3,0,0.5-0.2,0.5-0.5v-4.1
		c0-0.3,0.3-0.5,0.6-0.5c0.4,0,0.8,0.3,0.8,0.7v4c0,0.2,0.1,0.3,0.2,0.4c0.9,0.7,1.4,1.7,1.4,2.8v1h-4.7L17.7,39.2z M26,47.5H19
		v-2.6h7L26,47.5L26,47.5z"/>
	<path class="st1" d="M49.2,36.6l-4.6-8.2c-0.5-0.7-1.4-1-2.2-0.6c-0.8,0.4-1.2,1.3-0.9,2.1l1.9,4.2c-1,0.1-1.7,0.8-1.7,1.7v3.7
		c-1,0.9-1.6,2.1-1.6,3.4v1h-0.6c-0.3,0-0.5,0.2-0.5,0.5v3.7c0,0.3,0.2,0.5,0.5,0.5h8c0.3,0,0.5-0.2,0.5-0.5v-3.7
		c0-0.3-0.2-0.5-0.5-0.5h-0.5l2.2-4.1C49.9,38.8,49.9,37.5,49.2,36.6z M47,47.5H40v-2.6h7L47,47.5L47,47.5z M48.3,39.2l-2.5,4.6
		h-4.7v-1c0-1,0.5-2.1,1.4-2.8c0.1-0.1,0.2-0.3,0.2-0.4v-4c0-0.4,0.4-0.7,0.8-0.7c0.3,0,0.6,0.3,0.6,0.5v4.1c0,0.3,0.2,0.5,0.5,0.5
		c0.3,0,0.5-0.2,0.5-0.5v-4.1c0-0.3-0.1-0.5-0.2-0.8l0,0l-2.4-5.3c-0.1-0.3,0.1-0.6,0.4-0.7c0.3-0.2,0.7-0.1,0.9,0.2l4.6,8.2
		C48.8,37.8,48.8,38.6,48.3,39.2z"/>
	<path class="st1" d="M33,21.7c-1.6,0-2.9,1.3-2.9,2.9c0,1.6,1.3,2.9,2.9,2.9c1.6,0,2.9-1.3,2.9-2.9C35.9,23,34.6,21.7,33,21.7z
		 M33,26.4c-1,0-1.8-0.8-1.8-1.9c0-1,0.8-1.8,1.8-1.8c1,0,1.9,0.8,1.9,1.8C34.8,25.6,34,26.4,33,26.4z"/>
	<path class="st1" d="M40.6,29.7l-1-2.1c0.1-0.2,0.2-0.4,0.3-0.6l2.2-0.7c0.2-0.1,0.4-0.3,0.4-0.5v-2.5c0-0.2-0.2-0.4-0.4-0.5
		L39.8,22c-0.1-0.2-0.2-0.4-0.3-0.6l1-2.1c0.1-0.2,0.1-0.5-0.1-0.6L38.7,17c-0.2-0.2-0.4-0.2-0.6-0.1L36,18
		c-0.2-0.1-0.4-0.2-0.6-0.2l-0.7-2.2c-0.1-0.2-0.2-0.4-0.5-0.4h-2.5c-0.2,0-0.4,0.2-0.5,0.4l-0.7,2.2c-0.2,0.1-0.4,0.2-0.6,0.2
		l-2.1-1c-0.2-0.1-0.5-0.1-0.6,0.1l-1.8,1.8c-0.2,0.2-0.2,0.4-0.1,0.6l1,2.1c-0.1,0.2-0.2,0.4-0.3,0.6L24,22.9
		c-0.2,0.1-0.4,0.3-0.4,0.5v2.5c0,0.2,0.2,0.4,0.4,0.5l2.2,0.7c0.1,0.2,0.2,0.4,0.3,0.6l-1,2.1c-0.1,0.2-0.1,0.5,0.1,0.6l1.8,1.8
		c0.2,0.2,0.4,0.2,0.6,0.1l2.1-1c0.2,0.1,0.4,0.2,0.6,0.3l0.7,2.2c0.1,0.2,0.3,0.4,0.5,0.4h2.5c0.2,0,0.4-0.2,0.5-0.4l0.7-2.2
		c0.2-0.1,0.4-0.2,0.6-0.2l2.1,1c0.2,0.1,0.5,0.1,0.6-0.1l1.8-1.8C40.7,30.2,40.7,29.9,40.6,29.7z M38.3,31.1l-2-1
		c-0.2-0.1-0.3-0.1-0.5,0c-0.3,0.2-0.6,0.3-0.9,0.4c-0.2,0.1-0.3,0.2-0.3,0.3l-0.7,2.1h-1.8l-0.7-2.1c-0.1-0.2-0.2-0.3-0.3-0.3
		c-0.3-0.1-0.6-0.2-0.9-0.4c-0.2-0.1-0.3-0.1-0.5,0l-2,1l-1.3-1.3l1-2c0.1-0.2,0.1-0.3,0-0.5c-0.2-0.3-0.3-0.6-0.4-0.9
		c-0.1-0.2-0.2-0.3-0.3-0.3l-2.1-0.7v-1.8l2.1-0.7c0.2-0.1,0.3-0.2,0.3-0.3c0.1-0.3,0.2-0.6,0.4-0.9c0.1-0.2,0.1-0.3,0-0.5l-1-2
		l1.3-1.3l2,1c0.2,0.1,0.3,0.1,0.5,0c0.3-0.2,0.6-0.3,0.9-0.4c0.1-0.2,0.2-0.3,0.3-0.5l0.7-2.1h1.8l0.7,2.1c0.1,0.2,0.2,0.3,0.3,0.3
		c0.3,0.1,0.6,0.2,0.9,0.4c0.2,0.1,0.3,0.1,0.5,0l2-1l1.3,1.3l-1,2c-0.1,0.2-0.1,0.3,0,0.5c0.2,0.3,0.3,0.6,0.4,0.9
		c0.1,0.2,0.2,0.3,0.3,0.3l2.1,0.7v1.8l-2,0.8c-0.2,0.1-0.3,0.2-0.3,0.3c-0.1,0.3-0.2,0.6-0.4,0.9c-0.1,0.2-0.1,0.3,0,0.5l1,2
		L38.3,31.1z"/>
	<path class="st1" d="M31.5,37.5c-0.3,0-0.5,0.2-0.5,0.5v7.8c0,0.3,0.2,0.5,0.5,0.5s0.5-0.2,0.5-0.5V38
		C32.1,37.8,31.8,37.5,31.5,37.5z"/>
	<path class="st1" d="M34.5,37.5c-0.3,0-0.5,0.2-0.5,0.5v7.8c0,0.3,0.2,0.5,0.5,0.5s0.5-0.2,0.5-0.5V38C35,37.8,34.8,37.5,34.5,37.5
		z"/>
	<path class="st1" d="M28.6,34.2c-0.3,0-0.5,0.2-0.5,0.5v7.8c0,0.3,0.2,0.5,0.5,0.5c0.3,0,0.5-0.2,0.5-0.5v-7.8
		C29.1,34.4,28.9,34.2,28.6,34.2z"/>
	<path class="st1" d="M37.4,34.2c-0.3,0-0.5,0.2-0.5,0.5v7.8c0,0.3,0.2,0.5,0.5,0.5c0.3,0,0.5-0.2,0.5-0.5v-7.8
		C38,34.4,37.7,34.2,37.4,34.2z"/>
</g>
</svg>
