<svg id="Layer_1" data-name="Layer 1" xmlns="http://www.w3.org/2000/svg" width="35.2778mm" height="34.0378mm" viewBox="0 0 100 96.4851"><path d="M89.3784,77.8889H85.34V72.663H82.8754V35.89H94.802L51.4665,2.6663,8.131,35.89H20.0576V72.663H17.5932v5.2259H13.5556v5.4069H9.0511V94.234H93.8818V83.2958H89.3774V77.8889Zm-17.6606-7.475V38.2h7.5888V70.4139Zm-3.57,2.25H58.8286V35.89H68.148ZM47.6721,38.2h7.5888V70.4139H47.6721ZM51.4665,7.1645,84.2809,32.3208H18.652ZM31.2141,38.2V70.4139H23.6274V38.2Zm3.5688-2.31h9.32V72.663h-9.32Zm55.5312,50.975v3.8006H12.62V86.8646h4.5055V81.4587H21.163V76.2328H81.771v5.2259h4.0366v5.4059Z"/></svg>