<svg id="Layer_1" data-name="Layer 1" xmlns="http://www.w3.org/2000/svg" width="147.1083mm" height="149.1861mm" viewBox="0 0 417 422.8898"><defs><style>.cls-1{fill:none;}.cls-2{fill-rule:evenodd;}</style></defs><rect class="cls-1" width="416.667" height="416.667"/><path class="cls-2" d="M274.308,164.92h.053a76.4224,76.4224,0,0,1,76.334,76.387V373.259c0,8.284-6.35,17.655-20.63,24.539-22.827,11.005-68.766,18.869-121.732,18.869s-98.904-7.864-121.732-18.869c-14.279-6.884-20.63-16.255-20.63-24.539V241.307a76.4236,76.4236,0,0,1,76.388-76.387ZM132.772,186.579a55.6007,55.6007,0,0,0-45.967,54.728V372.808a19.3154,19.3154,0,0,0,2.567,2.543c3.681,2.762,9.1,5.226,15.85,7.528,23.256,7.93,60.804,12.954,103.111,12.954s79.855-5.024,103.112-12.954c6.749-2.302,12.169-4.766,15.85-7.5281a19.372,19.372,0,0,0,2.567-2.543V241.3069a55.6014,55.6014,0,0,0-45.95-54.725,76.4047,76.4047,0,0,1-151.14-.003Zm130.149-.826H153.763a55.567,55.567,0,0,0,109.158,0Z"/><path class="cls-2" d="M208.331,0a76.385,76.385,0,1,0,76.394,76.385A76.4257,76.4257,0,0,0,208.331,0Zm0,20.833A55.5515,55.5515,0,1,1,152.77,76.385,55.5826,55.5826,0,0,1,208.331,20.833Z"/></svg>