<?xml version="1.0" encoding="utf-8"?>
<!-- Generator: Adobe Illustrator 25.0.0, SVG Export Plug-In . SVG Version: 6.00 Build 0)  -->
<svg version="1.1" id="Layer_1" xmlns="http://www.w3.org/2000/svg" xmlns:xlink="http://www.w3.org/1999/xlink" x="0px" y="0px"
	 viewBox="0 0 512 508.9" style="enable-background:new 0 0 512 508.9;" xml:space="preserve">
<g>
	<rect x="117.5" y="192.5" width="86" height="19"/>
	<rect x="117.5" y="232.5" width="216" height="19"/>
	<rect x="117.5" y="272.5" width="216" height="19"/>
	<rect x="117.5" y="312.5" width="216" height="19"/>
	<rect x="117.5" y="352.5" width="216" height="19"/>
	<rect x="119" y="394" width="213" height="16"/>
	<rect x="119" y="434" width="213" height="16"/>
	<rect x="89.5" y="97.5" width="19" height="22"/>
	<rect x="89.5" y="124.5" width="19" height="102"/>
	<path d="M449.5,77.4c-0.1-2.8-1.3-5.3-3.4-7.1l-64-55.7c-1.5-1.3-3.3-2.1-5.4-2.3l-0.1,0L132.1,12c-5.2,0-9.5,4.2-9.6,9.5V62L72,62
		c-5.2,0-9.5,4.3-9.5,9.5l0,419.1c0.1,5.2,4.3,9.6,9.6,9.9l0.2,0l307.7,0l0.1,0c5.2-0.3,9.4-4.7,9.5-10v-40l50.4,0l0.1,0
		c5.2-0.3,9.4-4.7,9.5-10L449.5,77.4z M385.5,68.5v-26l29.3,26H385.5z M325.5,118.5v-26l29.3,26H325.5z M375.6,87.5h54.9v344h-41
		l0-304.1c-0.1-2.8-1.3-5.3-3.4-7.1l-64.1-55.8c-1.5-1.3-3.4-2-5.4-2.2l-0.1,0l-175-0.2V30.5h225v47.2
		C366.5,83.2,370.5,87.5,375.6,87.5z M315.6,137.5h54.9v344h-289v-401h225v47.2C306.5,133.2,310.5,137.5,315.6,137.5z"/>
</g>
</svg>
