<svg id="Layer_1" data-name="Layer 1" xmlns="http://www.w3.org/2000/svg" width="150" height="150" viewBox="0 0 150 150"><defs><style>.cls-1{fill:#e8e8e8;}.cls-2{fill:#e5e6ed;}.cls-3{fill:#fd425f;}.cls-4{fill:#fff;}.cls-5{fill:#f88667;}.cls-6{fill:#e45940;}.cls-7{fill:#110239;}.cls-8{fill:#01c7e2;}.cls-9{fill:#00a7cc;}.cls-10{fill:#e01f41;}</style></defs><circle class="cls-1" cx="75" cy="75" r="70.8138"/><rect class="cls-2" x="60.1482" y="37.7006" width="56.4883" height="61.8164"/><rect class="cls-3" x="63.9462" y="42.0752" width="48.8923" height="53.0672"/><path class="cls-4" d="M101.81,70.3712a2.4453,2.4453,0,0,0-3.0726-.6265s3.6411-8.0349,1.3368-12.0148a3.5836,3.5836,0,0,0-.8248-.969c.5775-2.6517-1.9625-3.7658-3.9773-4.7961a16.8135,16.8135,0,0,0-4.07-1.4646,11.7733,11.7733,0,0,0-7.9853.8913c-2.6738,1.4769-5.36,4.49-8.14,3.8047a5.8636,5.8636,0,0,0-.1041,4.0679,10.376,10.376,0,0,0,2.1342,4.0485,31.5152,31.5152,0,0,0,2.0806,6.4321,2.4447,2.4447,0,0,0-3.0722.6265c-1.3964,1.606,2.3039,5.6556,3.1418,6.1445a17.5821,17.5821,0,0,0,3.088,5.9833A13.59,13.59,0,0,0,85.51,85.28h-.2686s-.78,7.3682-2.2087,9.8623H94.3839C93.0648,92.84,92.3,86.3956,92.1906,85.4178A13.5969,13.5969,0,0,0,95.58,82.499a17.5835,17.5835,0,0,0,3.0881-5.9833C99.5059,76.0268,103.2063,71.9772,101.81,70.3712Z"/><path d="M86.7558,73.0827V70.4734a10.3428,10.3428,0,0,0,2.8031-2.6282,4.4664,4.4664,0,0,0,.9383-2.6093,3.1645,3.1645,0,0,0-.0236-.3811.8529.8529,0,0,0-.3444-.6987,1.4633,1.4633,0,0,0-.7248-.161.8929.8929,0,0,0-.6175.2344.77.77,0,0,0-.2612.6155,2.5937,2.5937,0,0,0,.0236.381,1.5023,1.5023,0,0,0,.0477.23c.0158.0491.0492.1336.1009.254s.0929.22.1244.2979l-3.907.7622c-.0242-.0845-.0655-.216-.1251-.3955s-.0969-.3-.1126-.3614-.0419-.1578-.0773-.2887a1.9374,1.9374,0,0,1-.0655-.3177q-.0117-.1217-.0294-.3025c-.0118-.12-.0177-.2461-.0177-.3764V64.65a4.2268,4.2268,0,0,1,.2135-1.3777A3.2925,3.2925,0,0,1,86.964,61.22a7.81,7.81,0,0,1,2.3219-.3032,6.68,6.68,0,0,1,4.0916,1.0751,3.5674,3.5674,0,0,1,1.4189,3.0192,6.3335,6.3335,0,0,1-1.1936,3.5273,7.1215,7.1215,0,0,1-2.8679,2.58v1.9643Zm-.1067,4.3189V74.04h4.2161v3.3616Z"/><path class="cls-5" d="M32.6048,67.9421s1.3166,2.3441.6744,3.0506c0,0,1.7661,1.6056,3.1469.9312s.58-1.28.58-1.28-.9654-.4218-1.4471-2.4449S32.6048,67.9421,32.6048,67.9421Z"/><path class="cls-6" d="M33.9992,71.5193a2.9008,2.9008,0,0,1,2.3767-1.45,4.9088,4.9088,0,0,1-.8169-1.87c-.4816-2.023-2.9542-.2569-2.9542-.2569s1.3166,2.3442.6744,3.0507A5.5077,5.5077,0,0,0,33.9992,71.5193Z"/><path class="cls-5" d="M31.4927,65.1595s.7732-2.0875,2.0546-2.1241,2.1192.0962,2.3341.5723a14.1312,14.1312,0,0,0,.9979,2.2766c.3722.4709,1.1369,1.0638,1.1428,1.292s-.7161.3747-.7482.4707a7.5482,7.5482,0,0,1-.5239,1.9792,5.3093,5.3093,0,0,1-3.2326-1.228C33.0717,67.7043,31.5008,66.4616,31.4927,65.1595Z"/><path class="cls-7" d="M34.1122,65.0741c.3421.2311,1.1855.4617,2.4776-.2805s.4218-3.7724-2.3838-3.2829S31.6214,62.995,31.1231,63.27a1.98,1.98,0,0,0-1.0552,1.2062A2.7406,2.7406,0,0,0,31.281,67.733c1.4541,1.0589,2.3265.7721,2.3265.7721.02-.3579-.0677-.9483-.3941-1.0962a1.99,1.99,0,0,1-.4928-.1981.5518.5518,0,0,1,.4385-.9724c.3189.015.5239.5522.73.7346.2184.1939.3389.1348.4414.0828.1993-.1011.2814-.7462-.2324-1.3609C33.7652,65.2969,33.77,64.843,34.1122,65.0741Z"/><path class="cls-7" d="M28.3462,109.5s-1.1561,2.2692-.8992,2.74,5.1058,2.4834,5.6838,2.1943.6089-1.1231-.32-1.7921c-.9956-.7174-1.6507-.6162-2.239-1.1621s0-1.5735,0-1.5735Z"/><path class="cls-7" d="M41.4629,110.1352s.1544,2.6772.5741,3.0115,5.6692.3063,6.09-.1845.1564-1.1724-.9122-1.3863a14.7652,14.7652,0,0,1-2.4138-.29c-.6529-.2633-1.0062-1.7083-1.0062-1.7083Z"/><path class="cls-8" d="M40.3816,82.8458l-6.84.4206S38.6879,95.5425,39.3944,97.02s1.81,13.65,1.81,13.65l3.1544-.5081s-.6654-12.4549-.83-13.4793A125.6879,125.6879,0,0,0,40.3816,82.8458Z"/><path class="cls-9" d="M38.063,87.8951c.2228-1.1449.38-2.631.629-3.77.0989-.4521.7306-.475.7785-.9251a1.3081,1.3081,0,0,1-.2738-.2809l-5.6555.3477S38.6879,95.5425,39.3944,97.02c.07.146.1689.3849.289.6914-.0029-.2478-.0127-.4951-.0311-.7419C39.5041,94.978,37.81,89.1953,38.063,87.8951Z"/><path class="cls-8" d="M38.4548,83.4238H32.6105a8.8641,8.8641,0,0,0-.6743,4.6242c.3532,2.5047-.4068,7.3588-.45,8.0009s-3.0683,11.1737-3.5179,13.5713l2.6933.9633s4.4244-12.8986,4.5956-13.1556S38.4548,83.4238,38.4548,83.4238Z"/><path class="cls-5" d="M40.7712,80.4577s1.156,1.67,1.9588,1.5413,6.412-3.81,6.412-3.81l-1.1778-.7823s-4.4636,3.0507-4.9131,2.9222c-.2367-.0676-1.425-3.1257-2.39-5.4162-1.1894-2.8238-1.87-3.232-1.87-3.232Z"/><path class="cls-6" d="M40.7712,80.4577s1.156,1.67,1.9588,1.5413,6.412-3.81,6.412-3.81l-1.1778-.7823s-4.4636,3.0507-4.9131,2.9222c-.2182-.0623-1.52-3.5065-2.47-5.6037-1.2905-2.85-1.79-3.0445-1.79-3.0445Z"/><path class="cls-3" d="M41.243,75.8459c.0093-.0133-.48-1.0721-.642-1.39-1.31-2.5684-1.81-2.7752-1.81-2.7752l1.1344,5.0282A4.2362,4.2362,0,0,0,41.243,75.8459Z"/><path class="cls-10" d="M41.243,75.8459c.0093-.0133-.48-1.0721-.642-1.39-1.31-2.5684-1.81-2.7752-1.81-2.7752l1.1344,5.0282A4.2362,4.2362,0,0,0,41.243,75.8459Z"/><path class="cls-3" d="M31.5017,85.5053s5.2459,1.3168,9.7415-.31a42.9145,42.9145,0,0,1-.9579-6.6875c0-1.9876-.623-6.2393-1.6666-6.9882a6.1675,6.1675,0,0,0-1.6787-.9119,1.8979,1.8979,0,0,1-1.1562,1.06c-.8027.1928-2.3535-.8305-2.3535-.8305s-3.1656,1.2382-3.59,1.9332c-.8687,1.4233,1.4386,5.4428,1.9524,7.53A13.2761,13.2761,0,0,1,31.5017,85.5053Z"/><path class="cls-10" d="M35.66,85.9933a25.2832,25.2832,0,0,1-.3556-2.9642,7.3754,7.3754,0,0,1,.0432-2.4762c-.0626-.216-.126-.4348-.18-.6244-.2731-.9544-.2463-3.0869-1.376-4.1652-.6524-.6225-1.45-1.5882-2.4183-1.7559a13.6809,13.6809,0,0,1-1.6476-.4511c.0476.3851-.4694,1.1178-.3048,1.6428.6752,1.6735,2.0381,3.7422,2.3724,5.1a13.2763,13.2763,0,0,1-.291,5.2056A21.3155,21.3155,0,0,0,35.66,85.9933Z"/><path class="cls-7" d="M67.189,81.3634a13.0079,13.0079,0,1,0-17.97-7.9265L30.3815,82.5334a1.8156,1.8156,0,0,0-.8663,2.417l.0158.0333a1.8156,1.8156,0,0,0,2.417.8663l18.8373-9.0966A13,13,0,0,0,67.189,81.3634ZM52.5712,73.8817A10.0225,10.0225,0,1,1,65.914,78.664,10.0227,10.0227,0,0,1,52.5712,73.8817Z"/><path class="cls-5" d="M33.0864,77.3507s1.67,3.436,2.0231,3.4682a57.3343,57.3343,0,0,0,6.88-.7065,5.1509,5.1509,0,0,0,.68-.5654,3.4749,3.4749,0,0,1,.3148-.2476,3.5924,3.5924,0,0,0,.3927-.2215c.094-.0792.4262-.5728.6138-.5264.1485.0368.1365.15.11.27-.0341.154-.2455.3-.3478.41-.0585.063-.2331.24-.2026.341.0416.1362.3431-.1024.4115-.1457a1.1894,1.1894,0,0,0,.28-.2419,3.8578,3.8578,0,0,0,.2567-.3409c.049-.0711.0958-.1469.1432-.2179.08-.12.1516-.2272.2212-.3531.0523-.0946.1358-.2025.2552-.1383.1336.072.0023.2947-.05.391a3.293,3.293,0,0,0-.1492.3081c-.0295.0707-.1463.19-.1057.2736a1.6776,1.6776,0,0,0,.3327-.3808c.0611-.0821.3729-.5937.5156-.4941.2264.1579-.0446.4936-.1494.6344a1.5089,1.5089,0,0,1-.233.26c-.0387.0317-.2059.2115-.1761.2087.2144-.0211.37-.346.5024-.4984.0821-.0942.3432-.37.38-.0951a.4274.4274,0,0,1-.111.29,1.5147,1.5147,0,0,1-.336.3636,1.215,1.215,0,0,0-.2185.2463c.16-.0039.4756-.4115.6212-.3024.0944.0709-.009.2656-.0614.3241a5.1507,5.1507,0,0,1-1.4125.9507,14.8528,14.8528,0,0,1-1.6189.751c-.7891.3117-7.4821,2.4083-8.2848,2.312s-2.9222-4.1985-3.5323-5.3907S33.0864,77.3507,33.0864,77.3507Z"/><path class="cls-3" d="M30.8065,79.2133a12.4157,12.4157,0,0,0,3.34-1.8859s-2.008-6.2862-4.0273-4.8489C27.8159,74.1175,30.8065,79.2133,30.8065,79.2133Z"/><path class="cls-5" d="M47.9754,77.7841c.1053-.0683.25.006.4314.1642-.2387-.2977-.5238-.6057-.2431-.6467.2715-.04.459.38.6558.5108-.105-.1464-.7265-.5786-.4846-.9033.1438-.1929.8088.562.9466.7127-.13-.1226-.69-.7127-.3921-.8344.2681-.11.6517.3955.8424.5562.14.1179.337.2154.37.4093.0634.3753-.485.6318-.77.7117a1.4756,1.4756,0,0,1-1.12-.1876C48.0184,78.1635,47.87,77.8525,47.9754,77.7841Z"/></svg>